<?xml version="1.0" encoding="UTF-8" standalone="no"?>
<!-- Created with Inkscape (http://www.inkscape.org/) -->

<svg
   xmlns:dc="http://purl.org/dc/elements/1.1/"
   xmlns:cc="http://creativecommons.org/ns#"
   xmlns:rdf="http://www.w3.org/1999/02/22-rdf-syntax-ns#"
   xmlns:svg="http://www.w3.org/2000/svg"
   xmlns="http://www.w3.org/2000/svg"
   xmlns:sodipodi="http://sodipodi.sourceforge.net/DTD/sodipodi-0.dtd"
   xmlns:inkscape="http://www.inkscape.org/namespaces/inkscape"
   width="210mm"
   height="297mm"
   viewBox="0 0 210 297"
   version="1.1"
   id="svg8"
   inkscape:version="0.92.4 (5da689c313, 2019-01-14)"
   sodipodi:docname="lattice.svg">
  <defs
     id="defs2" />
  <sodipodi:namedview
     id="base"
     pagecolor="#ffffff"
     bordercolor="#666666"
     borderopacity="1.0"
     inkscape:pageopacity="0.0"
     inkscape:pageshadow="2"
     inkscape:zoom="1.4"
     inkscape:cx="320.50394"
     inkscape:cy="651.16528"
     inkscape:document-units="mm"
     inkscape:current-layer="layer1"
     showgrid="false"
     inkscape:window-width="1920"
     inkscape:window-height="973"
     inkscape:window-x="1600"
     inkscape:window-y="37"
     inkscape:window-maximized="1" />
  <metadata
     id="metadata5">
    <rdf:RDF>
      <cc:Work
         rdf:about="">
        <dc:format>image/svg+xml</dc:format>
        <dc:type
           rdf:resource="http://purl.org/dc/dcmitype/StillImage" />
        <dc:title></dc:title>
      </cc:Work>
    </rdf:RDF>
  </metadata>
  <g
     inkscape:label="Camada 1"
     inkscape:groupmode="layer"
     id="layer1">
    <path
       style="opacity:1;fill:#ffffff;fill-opacity:1;stroke:#ffffff;stroke-width:0.76887923;stroke-linecap:round;stroke-linejoin:round;stroke-miterlimit:4;stroke-dasharray:none;stroke-dashoffset:0"
       id="path880"
       sodipodi:type="arc"
       sodipodi:cx="38.152725"
       sodipodi:cy="106.37001"
       sodipodi:rx="24.505636"
       sodipodi:ry="24.505636"
       sodipodi:start="2.8151463"
       sodipodi:end="2.8128599"
       sodipodi:open="true"
       d="M 14.941283,114.22846 A 24.505636,24.505636 0 0 1 30.281014,83.163064 24.505636,24.505636 0 0 1 61.355168,98.485035 24.505636,24.505636 0 0 1 46.050962,129.56794 24.505636,24.505636 0 0 1 14.959311,114.28151"
       inkscape:export-xdpi="96"
       inkscape:export-ydpi="96" />
    <g
       id="g850"
       inkscape:export-xdpi="96"
       inkscape:export-ydpi="96"
       transform="matrix(0.74765494,0,0,0.74765494,9.8779387,26.732757)">
      <path
         style="fill:none;stroke:#000000;stroke-width:1;stroke-linecap:butt;stroke-linejoin:miter;stroke-miterlimit:4;stroke-dasharray:none;stroke-opacity:1"
         d="M 50.145266,89.950139 26.17586,122.29036"
         id="path831"
         inkscape:connector-curvature="0" />
      <path
         inkscape:connector-curvature="0"
         id="path827"
         d="M 24.588792,87.979164 V 128.23363"
         style="fill:none;stroke:#000000;stroke-width:1;stroke-linecap:butt;stroke-linejoin:miter;stroke-miterlimit:4;stroke-dasharray:none;stroke-opacity:1" />
      <path
         d="m 20.471923,89.389035 a 4.3464127,4.3464127 0 0 1 2.720713,-5.509875 4.3464127,4.3464127 0 0 1 5.51143,2.717562 4.3464127,4.3464127 0 0 1 -2.714412,5.512983 4.3464127,4.3464127 0 0 1 -5.514533,-2.711261"
         sodipodi:open="true"
         sodipodi:end="2.8128599"
         sodipodi:start="2.8151463"
         sodipodi:ry="4.3464127"
         sodipodi:rx="4.3464127"
         sodipodi:cy="87.995232"
         sodipodi:cx="24.588793"
         sodipodi:type="arc"
         id="path823"
         style="opacity:1;fill:#000000;fill-opacity:1;stroke:#000000;stroke-width:0.6687577;stroke-linecap:round;stroke-linejoin:round;stroke-miterlimit:4;stroke-dasharray:none;stroke-dashoffset:0" />
      <path
         style="opacity:1;fill:#000000;fill-opacity:1;stroke:#000000;stroke-width:0.6687577;stroke-linecap:round;stroke-linejoin:round;stroke-miterlimit:4;stroke-dasharray:none;stroke-dashoffset:0"
         id="path829"
         sodipodi:type="arc"
         sodipodi:cx="24.588795"
         sodipodi:cy="125.03687"
         sodipodi:rx="4.3464127"
         sodipodi:ry="4.3464127"
         sodipodi:start="2.8151463"
         sodipodi:end="2.8128599"
         sodipodi:open="true"
         d="m 20.471925,126.43068 a 4.3464127,4.3464127 0 0 1 2.720713,-5.50988 4.3464127,4.3464127 0 0 1 5.51143,2.71756 4.3464127,4.3464127 0 0 1 -2.714412,5.51299 4.3464127,4.3464127 0 0 1 -5.514533,-2.71126" />
      <path
         style="fill:none;stroke:#000000;stroke-width:1;stroke-linecap:butt;stroke-linejoin:miter;stroke-miterlimit:4;stroke-dasharray:none;stroke-opacity:1"
         d="M 51.047127,87.979164 V 128.23363"
         id="path835"
         inkscape:connector-curvature="0" />
      <path
         style="opacity:1;fill:#000000;fill-opacity:1;stroke:#000000;stroke-width:0.6687577;stroke-linecap:round;stroke-linejoin:round;stroke-miterlimit:4;stroke-dasharray:none;stroke-dashoffset:0"
         id="path837"
         sodipodi:type="arc"
         sodipodi:cx="51.047131"
         sodipodi:cy="87.995232"
         sodipodi:rx="4.3464127"
         sodipodi:ry="4.3464127"
         sodipodi:start="2.8151463"
         sodipodi:end="2.8128599"
         sodipodi:open="true"
         d="m 46.930261,89.389035 a 4.3464127,4.3464127 0 0 1 2.720713,-5.509875 4.3464127,4.3464127 0 0 1 5.51143,2.717562 4.3464127,4.3464127 0 0 1 -2.714412,5.512983 4.3464127,4.3464127 0 0 1 -5.514533,-2.711261" />
      <path
         d="m 46.930261,126.43068 a 4.3464127,4.3464127 0 0 1 2.720713,-5.50988 4.3464127,4.3464127 0 0 1 5.51143,2.71756 4.3464127,4.3464127 0 0 1 -2.714412,5.51299 4.3464127,4.3464127 0 0 1 -5.514533,-2.71126"
         sodipodi:open="true"
         sodipodi:end="2.8128599"
         sodipodi:start="2.8151463"
         sodipodi:ry="4.3464127"
         sodipodi:rx="4.3464127"
         sodipodi:cy="125.03687"
         sodipodi:cx="51.047131"
         sodipodi:type="arc"
         id="path839"
         style="opacity:1;fill:#000000;fill-opacity:1;stroke:#000000;stroke-width:0.6687577;stroke-linecap:round;stroke-linejoin:round;stroke-miterlimit:4;stroke-dasharray:none;stroke-dashoffset:0" />
      <path
         inkscape:connector-curvature="0"
         id="path882"
         d="M 26.17586,89.950139 50.145266,122.29036"
         style="fill:none;stroke:#000000;stroke-width:1;stroke-linecap:butt;stroke-linejoin:miter;stroke-miterlimit:4;stroke-dasharray:none;stroke-opacity:1" />
    </g>
  </g>
</svg>
